<svg xmlns="http://www.w3.org/2000/svg">
  <defs>
    <!-- content_copy -->
    <symbol id="copy" viewBox="0 0 24 24" xmlns="http://www.w3.org/2000/svg">
        <path d="M16 1H4C2.9 1 2 1.9 2 3V17H4V3H16V1ZM19 5H8C6.9 5 6 5.9 6 7V21C6 22.1 6.9 23 8 23H19C20.1 23 21 22.1 21 21V7C21 5.9 20.1 5 19 5ZM19 21H8V7H19V21Z"/>
    </symbol>

    <!-- create -->
    <symbol id="create" viewBox="0 0 24 24" xmlns="http://www.w3.org/2000/svg">
        <path d="M3 17.25V21H6.75L17.81 9.94L14.06 6.19L3 17.25ZM5.92 19H5V18.08L14.06 9.02L14.98 9.94L5.92 19ZM20.71 5.63L18.37 3.29C18.17 3.09 17.92 3 17.66 3C17.4 3 17.15 3.1 16.96 3.29L15.13 5.12L18.88 8.87L20.71 7.04C21.1 6.65 21.1 6.02 20.71 5.63Z"/>
    </symbol>

    <!-- check -->
    <symbol id="check" viewBox="0 0 24 24" xmlns="http://www.w3.org/2000/svg">
      <path d="M8.99991 16.1701L4.82991 12.0001L3.40991 13.4101L8.99991 19.0001L20.9999 7.00009L19.5899 5.59009L8.99991 16.1701Z"/>
    </symbol>
  </defs>
</svg>
